<svg xmlns="http://www.w3.org/2000/svg" viewBox="0 0 1200 336" width="1200" height="336" role="img" aria-label="iris — memory and autopilot for Claude Code">
  <defs>
    <linearGradient id="ink" x1="0" y1="0" x2="1" y2="1">
      <stop offset="0" stop-color="#070709"/><stop offset="0.6" stop-color="#050506"/><stop offset="1" stop-color="#0a0a0e"/>
    </linearGradient>
    <radialGradient id="aura" cx="0.817" cy="0.500" r="0.36">
      <stop offset="0" stop-color="#5E6AD2" stop-opacity="0.20"/><stop offset="1" stop-color="#5E6AD2" stop-opacity="0"/>
    </radialGradient>
    <radialGradient id="pupil" cx="0.5" cy="0.5" r="0.5">
      <stop offset="0" stop-color="#5E6AD2" stop-opacity="0.35"/><stop offset="1" stop-color="#5E6AD2" stop-opacity="0"/>
    </radialGradient>
    <linearGradient id="word" x1="0" y1="0" x2="0" y2="1"><stop offset="0" stop-color="#ffffff"/><stop offset="1" stop-color="#c7cbe8"/></linearGradient>
    <linearGradient id="rule" x1="0" y1="0" x2="1" y2="0"><stop offset="0" stop-color="#5E6AD2"/><stop offset="1" stop-color="#8b93e8"/></linearGradient>
  </defs>

  <rect x="1" y="1" width="1198" height="334" rx="18" fill="url(#ink)"/>
  <rect x="1" y="1" width="1198" height="334" rx="18" fill="url(#aura)"/>

  <rect x="1042" y="30" width="122" height="34" rx="17" fill="none" stroke="#ffffff" stroke-opacity="0.14"/>
  <text x="1103" y="52" text-anchor="middle" font-family="ui-monospace, 'JetBrains Mono', Menlo, monospace" font-size="15" letter-spacing="1" fill="#8b93e8">v0.1.0</text>

  <circle cx="980" cy="168" r="86" fill="url(#pupil)"/>
  <circle cx="980" cy="168" r="78" fill="none" stroke="#5E6AD2" stroke-opacity="0.22" stroke-width="1.4"/>
  <path d="M1006.6 172.7 L1001.9 228.1 A64 64 0 0 0 1043.0 179.1 Z" fill="#5E6AD2" fill-opacity="0.10" stroke="#5E6AD2" stroke-opacity="0.72" stroke-width="1.6"/>
  <path d="M989.2 193.4 L938.9 217.0 A64 64 0 0 0 1001.9 228.1 Z" fill="#5E6AD2" fill-opacity="0.15" stroke="#5E6AD2" stroke-opacity="0.72" stroke-width="1.6"/>
  <path d="M962.6 188.7 L917.0 156.9 A64 64 0 0 0 938.9 217.0 Z" fill="#5E6AD2" fill-opacity="0.10" stroke="#5E6AD2" stroke-opacity="0.72" stroke-width="1.6"/>
  <path d="M953.4 163.3 L958.1 107.9 A64 64 0 0 0 917.0 156.9 Z" fill="#5E6AD2" fill-opacity="0.15" stroke="#5E6AD2" stroke-opacity="0.72" stroke-width="1.6"/>
  <path d="M970.8 142.6 L1021.1 119.0 A64 64 0 0 0 958.1 107.9 Z" fill="#5E6AD2" fill-opacity="0.10" stroke="#5E6AD2" stroke-opacity="0.72" stroke-width="1.6"/>
  <path d="M997.4 147.3 L1043.0 179.1 A64 64 0 0 0 1021.1 119.0 Z" fill="#5E6AD2" fill-opacity="0.15" stroke="#5E6AD2" stroke-opacity="0.72" stroke-width="1.6"/>
  <polygon points="1006.6,172.7 989.2,193.4 962.6,188.7 953.4,163.3 970.8,142.6 997.4,147.3" fill="#08080c" stroke="#9aa2ef" stroke-opacity="0.7" stroke-width="1.6"/>
  <circle cx="980" cy="168" r="5" fill="#9aa2ef"/>

  <text x="70" y="192" font-family="-apple-system, BlinkMacSystemFont, 'Segoe UI', Roboto, Helvetica, Arial, sans-serif" font-size="132" font-weight="800" letter-spacing="-3" fill="url(#word)">iris</text>
  <rect x="76" y="212" width="206" height="5" rx="2.5" fill="url(#rule)"/>
  <text x="78" y="258" font-family="-apple-system, BlinkMacSystemFont, 'Segoe UI', Roboto, Helvetica, Arial, sans-serif" font-size="26" font-weight="500" letter-spacing="0.2" fill="#aab2cc">memory + autopilot for Claude Code</text>

  <rect x="1" y="1" width="1198" height="334" rx="18" fill="none" stroke="#ffffff" stroke-opacity="0.09"/>
</svg>
